<svg xmlns="http://www.w3.org/2000/svg" viewBox="0 0 512 512" role="img" aria-label="Dad Bot icon">
  <defs>
    <linearGradient id="bg" x1="0" y1="0" x2="1" y2="1">
      <stop offset="0%" stop-color="#20323b"/>
      <stop offset="100%" stop-color="#8e5c2b"/>
    </linearGradient>
    <linearGradient id="beard" x1="0" y1="0" x2="1" y2="1">
      <stop offset="0%" stop-color="#f1d2a8"/>
      <stop offset="100%" stop-color="#d59a55"/>
    </linearGradient>
  </defs>
  <rect width="512" height="512" rx="120" fill="url(#bg)"/>
  <circle cx="256" cy="214" r="116" fill="#f0d6b7"/>
  <path d="M153 196c18-55 71-95 135-95s117 40 135 95c-13-11-31-20-49-24-25-6-43-33-43-33s-29 31-75 31c-40 0-71-23-89-44-9 4-21 14-28 24z" fill="#e9ecef" fill-opacity="0.18"/>
  <path d="M177 155c27-34 65-57 79-57 18 0 54 20 82 57-18-4-33-8-82-8-46 0-59 3-79 8z" fill="#d9d9dd"/>
  <circle cx="214" cy="218" r="11" fill="#20323b"/>
  <circle cx="298" cy="218" r="11" fill="#20323b"/>
  <path d="M218 279c20 15 56 15 76 0" stroke="#7f4f2c" stroke-width="12" fill="none" stroke-linecap="round"/>
  <path d="M164 270c7 84 58 142 92 142s85-58 92-142c-26 21-63 33-92 33s-66-12-92-33z" fill="url(#beard)"/>
  <path d="M173 331c23 34 50 53 83 53 35 0 62-19 83-53-17 9-42 20-83 20-39 0-65-10-83-20z" fill="#b5793f" fill-opacity="0.55"/>
  <rect x="122" y="404" width="268" height="34" rx="17" fill="#f7efe6" fill-opacity="0.12"/>
</svg>
